<svg width="24" height="24" viewBox="0 0 24 24" fill="none" xmlns="http://www.w3.org/2000/svg">
<path fill-rule="evenodd" clip-rule="evenodd" d="M21.3351 4.31341L13.3351 0.313408C12.4941 -0.104469 11.506 -0.104469 10.6651 0.313408L2.66286 4.31451C1.64559 4.82 1.00068 5.85999 1.00007 6.99841L1.00007 16.5189C0.99216 17.6524 1.63159 18.6988 2.6501 19.212L10.6529 23.2134C11.4976 23.6361 12.4925 23.6361 13.3376 23.2132L21.3373 19.2134C22.3546 18.7079 22.9995 17.6679 23.0001 16.5295V6.99894C22.9995 5.85999 22.3546 4.82 21.3351 4.31341ZM3.55507 6.10461L11.5573 2.1035C11.8351 1.96547 12.164 1.96532 12.4442 2.10415L20.4429 6.1035C20.7849 6.27347 20.9999 6.62014 21.0001 6.99961L21.0001 16.5291C20.9999 16.908 20.7849 17.2547 20.4451 17.4235L12.4429 21.4247C12.1609 21.5657 11.8293 21.5657 11.5476 21.4248L3.54729 17.4247C3.21054 17.255 2.9974 16.9062 3.00005 16.526L3.00007 6.99908C3.00027 6.62014 3.21524 6.27347 3.55507 6.10461Z" fill="#000000"/>
<path d="M12.0001 9.64113L2.76729 5.02474C2.27331 4.77775 1.67264 4.97797 1.42565 5.47195C1.17866 5.96593 1.37888 6.5666 1.87286 6.81359L11.5529 11.6536C11.8344 11.7944 12.1658 11.7944 12.4473 11.6536L22.1273 6.81359C22.6213 6.5666 22.8215 5.96593 22.5745 5.47195C22.3275 4.97797 21.7268 4.77775 21.2329 5.02474L12.0001 9.64113Z" fill="#000000"/>
<path d="M13.0001 22.5188V10.7588C13.0001 10.2065 12.5523 9.75879 12.0001 9.75879C11.4478 9.75879 11.0001 10.2065 11.0001 10.7588V22.5188C11.0001 23.0711 11.4478 23.5188 12.0001 23.5188C12.5523 23.5188 13.0001 23.0711 13.0001 22.5188Z" fill="#000000"/>
</svg>
