<svg width="24" height="24" viewBox="0 0 24 24" fill="none" xmlns="http://www.w3.org/2000/svg">
<path fill-rule="evenodd" clip-rule="evenodd" d="M21 3H3C1.34315 3 0 4.34315 0 6V18C0 19.6569 1.34315 21 3 21H21C22.6569 21 24 19.6569 24 18V6C24 4.34315 22.6569 3 21 3ZM2 6C2 5.44772 2.44772 5 3 5H21C21.5523 5 22 5.44772 22 6V18C22 18.5523 21.5523 19 21 19H3C2.44772 19 2 18.5523 2 18V6Z" fill="#00AC68"/>
<path fill-rule="evenodd" clip-rule="evenodd" d="M1 11H23C23.5523 11 24 10.5523 24 10C24 9.44772 23.5523 9 23 9H1C0.447715 9 0 9.44772 0 10C0 10.5523 0.447715 11 1 11Z" fill="#00AC68"/>
</svg>
