<svg width="114" height="88" viewBox="0 0 114 88" fill="none" xmlns="http://www.w3.org/2000/svg">
<path d="M109.531 0.0221691L93.892 2.87017C93.5912 2.92397 93.3121 3.07168 93.0905 3.29452C92.8689 3.51736 92.7146 3.80525 92.6474 4.12154C92.5802 4.43783 92.603 4.76823 92.713 5.07069C92.823 5.37315 93.0151 5.63399 93.265 5.82002L96.1484 7.98891L78.4687 34.5504C78.3538 34.7231 78.2079 34.87 78.0394 34.9827C77.8709 35.0954 77.6832 35.1717 77.487 35.2071C77.2907 35.2426 77.0899 35.2366 76.8958 35.1895C76.7018 35.1423 76.5183 35.055 76.3561 34.9324L50.3697 15.4081C50.0406 15.1619 49.6331 15.0643 49.2364 15.1366C48.8397 15.209 48.4861 15.4455 48.2531 15.7944L0 87H20.362L51.9272 38.5486C52.0422 38.3759 52.1881 38.229 52.3566 38.1163C52.525 38.0036 52.7127 37.9273 52.909 37.8918C53.1052 37.8564 53.3061 37.8624 53.5002 37.9095C53.6942 37.9567 53.8776 38.044 54.0398 38.1666L80.0262 57.6909C80.189 57.8133 80.3729 57.9005 80.5675 57.9474C80.762 57.9943 80.9633 57.9999 81.1599 57.9641C81.3565 57.9282 81.5445 57.8515 81.7131 57.7383C81.8818 57.6252 82.0278 57.4778 82.1428 57.3046L108.696 17.4072L111.584 19.5761C111.833 19.7584 112.126 19.8589 112.429 19.8652C112.731 19.8714 113.028 19.7831 113.283 19.6112C113.539 19.4394 113.741 19.1915 113.865 18.8985C113.988 18.6055 114.029 18.2803 113.98 17.9633L111.296 1.34218C111.224 0.919862 110.998 0.544671 110.668 0.297677C110.338 0.0506825 109.929 -0.0482827 109.531 0.0221691Z" fill="#D8F7E5"/>
<path d="M67.9616 82.4351H65.1694V82.5138H67.9616V82.4351Z" fill="#EBEBEB"/>
<path d="M72.0517 67.876H62.7915V87.127H72.0517V67.876Z" fill="#00AC68"/>
<path d="M83.6027 57.3867H74.3425V87.1275H83.6027V57.3867Z" fill="#00AC68"/>
<path d="M95.3725 64.5205H86.1123V87.1275H95.3725V64.5205Z" fill="#00AC68"/>
<path d="M51.7543 36.8753C51.636 37.2187 51.544 37.4677 51.4345 37.7338C51.325 38 51.2155 38.2833 51.1016 38.5537C50.8737 39.0988 50.6328 39.6311 50.3787 40.1634C49.8712 41.2315 49.3022 42.2706 48.6744 43.2755C47.39 45.4251 45.7169 47.3276 43.737 48.8901C43.1857 49.3019 42.5994 49.6667 41.9845 49.9804C41.8268 50.0662 41.6647 50.1392 41.4982 50.2122C41.3318 50.2851 41.1828 50.3538 40.9857 50.4268C40.5973 50.5668 40.197 50.6731 39.7896 50.7444C39.128 50.8538 38.4584 50.9098 37.7875 50.9118C37.1566 50.9118 36.552 50.9118 35.9562 50.856C33.6321 50.6744 31.3324 50.266 29.0911 49.637L29.4372 47.1258C31.6277 47.0443 33.8489 46.9756 35.9343 46.7953C36.4556 46.7481 36.9682 46.688 37.4545 46.615C37.8998 46.5558 38.3393 46.4611 38.7688 46.3317C38.9091 46.2925 39.0443 46.2378 39.1719 46.1686C39.3165 46.0828 39.5136 46.0012 39.6757 45.8896C40.0328 45.669 40.3712 45.4207 40.6877 45.147C41.3866 44.5397 42.0167 43.8604 42.5672 43.1209C43.1671 42.3366 43.7144 41.515 44.2058 40.6613C44.7183 39.8028 45.1784 38.8885 45.6296 37.9699C45.8487 37.5106 46.0677 37.0427 46.2605 36.5748L46.554 35.8752L46.8212 35.2141L51.7543 36.8753Z" fill="#B55B52"/>
<path d="M50.094 32.9183C56.3809 32.9183 49.4719 46.2251 49.4719 46.2251L41.4502 43.0444C41.4502 43.0444 43.6407 38.417 45.0821 35.7685C45.5489 34.8712 46.2702 34.125 47.1592 33.6194C48.0482 33.1139 49.0673 32.8704 50.094 32.9183Z" fill="white"/>
<path opacity="0.2" d="M48.5567 37.2189C46.2566 38.8029 44.6575 41.7433 44.2019 44.1299L48.7845 45.9499C49.6169 44.7309 50.4274 43.2929 51.3211 42.0309C51.5665 41.3741 51.8074 40.683 52.0177 39.9833L48.5567 37.2189Z" fill="black"/>
<path d="M31.4086 47.448L28.6529 45.9241L26.5413 49.7874C27.761 49.9896 29.0091 49.959 30.217 49.6973L31.4086 47.448Z" fill="#B55B52"/>
<path d="M26.0158 45.9241L24.4824 49.3324L26.524 49.8003L28.6357 45.9241H26.0158Z" fill="#B55B52"/>
<path d="M67.2371 34.3901C66.2268 38.0333 65.4946 41.7452 65.0465 45.4948C64.718 48.109 64.5252 50.6029 64.4025 52.8694C64.1134 58.1749 64.236 62.2185 64.0739 63.6007C61.3796 63.4204 51.2286 62.7422 45.6734 62.3473C43.1719 43.1468 47.9516 33.2569 47.9516 33.2569C49.3994 32.9902 50.8625 32.8111 52.3327 32.7203C52.6437 32.7203 52.9635 32.6903 53.2834 32.686C55.8969 32.716 58.5065 32.8937 61.0992 33.2182C61.5899 33.2741 62.0893 33.347 62.5712 33.4243C65.0728 33.802 67.2371 34.3901 67.2371 34.3901Z" fill="white"/>
<path opacity="0.2" d="M62.5973 39.2492C62.5622 42.012 63.3526 44.7246 64.8711 47.053C64.9237 46.5379 64.985 46.0185 65.0507 45.4948C65.2961 43.5288 65.6115 41.4941 66.0277 39.438L62.5973 39.2492Z" fill="black"/>
<path d="M60.9761 24.5294C60.3102 26.9633 59.4953 31.4404 61.1382 33.2046C60.3073 33.9431 59.3243 34.4981 58.2555 34.8321C57.1868 35.1661 56.0572 35.2713 54.9434 35.1405C52.7835 34.9474 52.7835 33.4579 53.3224 32.6723C56.1745 32.2087 56.2446 30.1655 55.8941 28.2167L60.9761 24.5294Z" fill="#B55B52"/>
<path d="M53.3621 35.9438C53.4129 36.3227 53.5039 36.6953 53.6337 37.0556C53.6709 37.1703 53.7445 37.2705 53.8438 37.3415C53.943 37.4125 54.0628 37.4507 54.1857 37.4505C54.5457 37.4453 54.9053 37.4755 55.2591 37.5406C55.3336 37.5577 55.4109 37.5597 55.4863 37.5464C55.5616 37.5331 55.6334 37.5049 55.6972 37.4634C56.1353 37.1929 56.6961 36.7937 56.5515 36.2958C56.3806 35.712 55.3555 35.184 55.3555 35.184C55.3555 35.184 53.5943 35.609 53.3621 35.9438Z" fill="#263238"/>
<path d="M54.2869 37.0555C53.5816 38.5664 51.9518 48.2418 51.7503 49.7055C51.5488 51.1693 52.2366 53.5302 53.1917 55.406C54.2895 53.9309 54.9147 52.1693 54.9879 50.3451C55.115 48.3448 55.2376 37.2959 55.2376 37.2959L54.2869 37.0555Z" fill="#263238"/>
<path d="M55.1975 34.8635C55.8497 35.3965 56.3885 36.0499 56.7835 36.7865C57.8919 36.7007 62.7855 34.5973 62.0889 32.9748C61.48 32.8073 60.9455 32.4639 60.7746 32.6399C60.5424 32.9876 58.4658 34.2153 55.1975 34.8635Z" fill="#EEEEEE"/>
<path d="M55.3423 35.1837C55.3423 35.1837 53.4628 35.8061 53.0247 36.8534C51.89 36.3598 51.2723 34.132 52.2756 32.6682C52.9021 32.6167 53.5023 32.312 53.6162 32.5137C53.7914 32.8957 53.3139 33.9217 55.3423 35.1837Z" fill="#EEEEEE"/>
<path opacity="0.2" d="M58.9048 26.0373L55.895 28.2136C55.9858 28.6676 56.0342 29.1288 56.0396 29.5915C57.1217 29.5142 58.6682 28.4625 58.8698 27.3723C58.9652 26.9332 58.9771 26.4806 58.9048 26.0373Z" fill="black"/>
<path d="M53.6781 16.7136C52.3638 17.2201 51.8775 22.2038 54.5544 21.7144C57.2312 21.2251 56.3243 15.6963 53.6781 16.7136Z" fill="#263238"/>
<path d="M62.3567 21.6974C61.2833 24.8782 60.8233 26.7927 58.7116 28.0246C55.531 29.8747 51.8552 27.3421 51.9341 23.9124C52.0042 20.8261 53.7435 16.1386 57.3228 15.6879C58.1109 15.5834 58.9131 15.6782 59.6532 15.9632C60.3934 16.2483 61.0468 16.7141 61.5513 17.3164C62.0558 17.9187 62.3946 18.6374 62.5356 19.4043C62.6766 20.1711 62.615 20.9605 62.3567 21.6974Z" fill="#B55B52"/>
<path d="M61.1388 23.8863C59.7762 23.9121 58.6591 19.8685 61.406 18.7353C59.2418 18.4906 52.5957 18.8469 51.404 15.9366C50.2124 13.0263 54.8344 12.5756 56.4072 13.6744C55.9078 12.0733 57.9406 9.71245 61.5944 11.8587C65.2482 14.005 65.2044 16.6534 64.8627 17.439C66.4924 17.8682 66.8122 21.4224 65.0116 21.8989C66.0675 23.3326 65.1562 26.3459 62.3085 25.7021C62.2121 27.4577 60.2144 26.6894 60.337 25.3415C60.4597 23.9937 61.1388 23.8863 61.1388 23.8863Z" fill="#263238"/>
<path d="M55.0664 24.6624C55.4516 24.7728 55.8581 24.7914 56.2521 24.7167C56.646 24.6421 57.0161 24.4763 57.3315 24.2331C57.3478 24.2164 57.3569 24.1941 57.3569 24.1709C57.3569 24.1477 57.3478 24.1254 57.3315 24.1086C57.3151 24.0929 57.2931 24.0841 57.2701 24.0841C57.2472 24.0841 57.2252 24.0929 57.2088 24.1086C56.9175 24.3374 56.5753 24.4955 56.2098 24.5701C55.8444 24.6447 55.4661 24.6337 55.1059 24.5379C55.0949 24.5347 55.0835 24.5337 55.0721 24.535C55.0608 24.5363 55.0498 24.5399 55.04 24.5456C55.0301 24.5512 55.0215 24.5588 55.0148 24.5678C55.008 24.5768 55.0033 24.5871 55.0007 24.598C55.0039 24.6139 55.0119 24.6285 55.0236 24.64C55.0353 24.6515 55.0502 24.6593 55.0664 24.6624Z" fill="#263238"/>
<path d="M62.9228 24.7398C62.2933 25.3155 61.4572 25.624 60.5965 25.5983C59.4574 25.5511 59.2384 24.4694 59.8473 23.598C60.3993 22.8125 61.6523 21.881 62.6512 22.3575C62.8685 22.4643 63.0551 22.6226 63.194 22.818C63.333 23.0134 63.4199 23.2397 63.4469 23.4764C63.4739 23.7131 63.4401 23.9527 63.3486 24.1733C63.257 24.3939 63.1107 24.5887 62.9228 24.7398Z" fill="#B55B52"/>
<path d="M51.7983 87C52.9753 81.8576 54.2953 76.6275 55.425 72.3555C56.8859 66.7953 58 62.8633 58 62.8633L46.044 62C46.044 62 43.1248 75.1346 41 87H51.7983Z" fill="#263238"/>
<path opacity="0.2" d="M51.8456 87C52.8693 81.9771 54.0174 76.8685 55 72.6958L53.9179 70C51.7986 72.9319 50.9559 80.9357 51.0018 87H51.8456Z" fill="black"/>
<path d="M53 63C53 63 53.5102 75.4661 54.2336 87H63.3838C63.4473 75.435 64 63.8362 64 63.8362L53 63Z" fill="#263238"/>
<path d="M57.3667 21.4439C57.2922 21.7057 57.095 21.8732 56.9285 21.8388C56.7621 21.8045 56.6657 21.5426 56.7358 21.2808C56.8059 21.0189 57.0074 20.8515 57.1739 20.8859C57.3404 20.9202 57.4367 21.1821 57.3667 21.4439Z" fill="#263238"/>
<path d="M54.3262 20.6629C54.2561 20.9247 54.0546 21.0921 53.8881 21.0535C53.7216 21.0149 53.6296 20.7616 53.6997 20.4955C53.7698 20.2293 53.9714 20.0662 54.1378 20.1006C54.3043 20.1349 54.3963 20.3968 54.3262 20.6629Z" fill="#263238"/>
<path d="M55.0005 20.9077C54.4629 21.6295 53.8276 22.2764 53.1123 22.8308C53.4672 23.3845 54.3828 23.3373 54.3828 23.3373L55.0005 20.9077Z" fill="#630F0F"/>
<path d="M58.3082 20.5899C58.2777 20.588 58.2484 20.5778 58.2236 20.5603C58.1988 20.5429 58.1795 20.5189 58.168 20.4911C58.094 20.3036 57.9762 20.1357 57.8241 20.0007C57.6719 19.8658 57.4896 19.7677 57.2918 19.7142C57.2708 19.7103 57.2508 19.7023 57.233 19.6908C57.2151 19.6793 57.1997 19.6644 57.1877 19.6471C57.1757 19.6297 57.1673 19.6102 57.163 19.5897C57.1587 19.5692 57.1586 19.5481 57.1626 19.5275C57.1666 19.5069 57.1747 19.4873 57.1865 19.4698C57.1982 19.4523 57.2134 19.4373 57.2311 19.4255C57.2488 19.4137 57.2687 19.4055 57.2896 19.4013C57.3106 19.3971 57.3322 19.3969 57.3532 19.4008C57.6043 19.4636 57.8364 19.5845 58.03 19.7533C58.2236 19.9221 58.3731 20.1339 58.466 20.371C58.4745 20.3904 58.4791 20.4113 58.4793 20.4324C58.4796 20.4536 58.4755 20.4746 58.4673 20.4942C58.4592 20.5138 58.4471 20.5316 58.4318 20.5465C58.4165 20.5615 58.3983 20.5733 58.3783 20.5813C58.356 20.5895 58.332 20.5924 58.3082 20.5899Z" fill="#263238"/>
<path d="M53.0428 19.1679C53.009 19.1641 52.977 19.1507 52.9508 19.1293C52.9353 19.1145 52.923 19.0968 52.9146 19.0773C52.9062 19.0577 52.9019 19.0367 52.9019 19.0155C52.9019 18.9943 52.9062 18.9733 52.9146 18.9538C52.923 18.9343 52.9353 18.9166 52.9508 18.9018C53.1148 18.7052 53.3245 18.55 53.5623 18.4491C53.8001 18.3483 54.0592 18.3048 54.3177 18.3223C54.3599 18.3297 54.3977 18.3523 54.4237 18.3857C54.4497 18.4191 54.4619 18.4608 54.4579 18.5026C54.4514 18.5444 54.4286 18.5821 54.3942 18.6077C54.3599 18.6333 54.3168 18.6449 54.2739 18.6399C54.0691 18.6309 53.865 18.6688 53.6779 18.7508C53.4907 18.8328 53.3258 18.9565 53.1962 19.1121C53.1777 19.1336 53.1538 19.15 53.127 19.1597C53.1001 19.1695 53.0711 19.1723 53.0428 19.1679Z" fill="#263238"/>
<path d="M51.6096 49.4648L50.2121 48.4861L27.2991 79.9116L28.6966 80.8903C32.9552 83.7171 38.1727 84.8012 43.2357 83.9112C48.2986 83.0213 52.8061 80.2277 55.7962 76.1268C58.7863 72.0259 60.0221 66.9424 59.2399 61.9612C58.4577 56.9799 55.7195 52.4955 51.6096 49.4648Z" fill="#00AC68"/>
<path opacity="0.1" d="M51.6096 49.4648L50.2121 48.4861L27.2991 79.9116L28.6966 80.8903C32.9552 83.7171 38.1727 84.8012 43.2357 83.9112C48.2986 83.0213 52.8061 80.2277 55.7962 76.1268C58.7863 72.0259 60.0221 66.9424 59.2399 61.9612C58.4577 56.9799 55.7195 52.4955 51.6096 49.4648Z" fill="black"/>
<path d="M42.739 83.1043C53.3985 80.9528 60.2597 70.7421 58.0638 60.298C55.868 49.854 45.4466 43.1315 34.7871 45.2829C24.1276 47.4344 17.2664 57.6451 19.4623 68.0892C21.6581 78.5333 32.0794 85.2557 42.739 83.1043Z" fill="#00AC68"/>
<path d="M34.1027 69.0814L37.1957 64.8447C36.1209 63.5226 35.547 62.2577 35.4739 61.0501C35.4184 59.8159 35.8042 58.6014 36.5648 57.6161C37.2877 56.566 38.4008 55.8343 39.6666 55.5771C40.975 55.3331 42.3292 55.5798 43.4606 56.2682L44.2054 55.2466L45.7037 56.294L44.9546 57.3156C45.8711 58.0696 46.5085 59.0985 46.7683 60.2431C46.9643 61.3673 46.7797 62.5236 46.2426 63.5354L43.3862 62.0417C43.5945 61.6563 43.6982 61.2249 43.6875 60.789C43.6767 60.353 43.5519 59.9271 43.3248 59.552L40.4421 63.5097C41.7739 65.1065 42.4851 66.4629 42.5757 67.579C42.6416 68.7727 42.2651 69.9496 41.5154 70.8928C40.7236 72.0485 39.5157 72.8686 38.1333 73.1893C36.6761 73.4833 35.1596 73.2484 33.8661 72.5283L33.1213 73.5499L31.623 72.5025L32.3327 71.5281C31.3112 70.6687 30.6228 69.491 30.3831 68.1928C30.2001 66.7793 30.4891 65.3456 31.2068 64.1064L34.1114 65.7118C33.8374 66.2834 33.701 66.909 33.7128 67.5404C33.7181 68.0768 33.8516 68.6046 34.1027 69.0814ZM41.8484 58.4574C41.3701 58.3049 40.8547 58.3049 40.3764 58.4574C39.9144 58.6016 39.5129 58.8894 39.2329 59.2773C38.974 59.6362 38.8362 60.0654 38.8386 60.5049C38.8437 61.0178 38.9955 61.5189 39.2767 61.9515L41.8484 58.4574ZM35.4959 70.2747C36.0408 70.533 36.6612 70.5953 37.2483 70.4507C37.8374 70.3089 38.3532 69.9608 38.6984 69.472C39.0151 69.0528 39.1703 68.5373 39.1365 68.0168C39.0528 67.3883 38.778 66.7991 38.3479 66.3256L35.4959 70.2747Z" fill="white"/>
<path opacity="0.1" d="M54.7204 62.5913C53.8032 58.6897 51.4019 55.2777 48.0059 53.0509C44.61 50.824 40.4751 49.95 36.4442 50.6068C32.4132 51.2637 28.7897 53.4021 26.3122 56.5861C23.8348 59.77 22.6899 63.7599 23.111 67.7423C22.6192 65.6501 22.5697 63.4815 22.9657 61.3699C23.3616 59.2583 24.1947 57.2485 25.4134 55.4643C26.6321 53.6801 28.2108 52.1593 30.0521 50.9955C31.8935 49.8317 33.9585 49.0496 36.12 48.6974C38.2815 48.3451 40.4938 48.4302 42.6205 48.9474C44.7472 49.4645 46.7433 50.4028 48.4858 51.7045C50.2284 53.0061 51.6805 54.6435 52.7527 56.5159C53.825 58.3882 54.4946 60.4558 54.7204 62.5913Z" fill="black"/>
<path d="M67.6795 36.2363C68.1177 36.7814 68.4813 37.2707 68.8493 37.803C69.2173 38.3353 69.5766 38.8461 69.927 39.3784C70.6236 40.4429 71.2852 41.5246 71.8985 42.6536C72.5119 43.7825 73.0814 44.9372 73.5984 46.1305L73.9751 47.0362L74.3169 47.9677C74.4308 48.2725 74.5272 48.5987 74.6279 48.9163L74.7725 49.3971L74.8119 49.5173L74.8776 49.7791C74.9193 49.9573 74.9486 50.138 74.9653 50.32C75.0068 50.925 74.9249 51.5321 74.7243 52.1057C74.5729 52.5373 74.3746 52.9518 74.1329 53.3419C73.7329 53.9806 73.2692 54.5788 72.7484 55.1276C71.8244 56.09 70.8206 56.9759 69.7474 57.7761C67.7072 59.3025 65.5347 60.6512 63.2547 61.8068L61.8352 59.6863C63.6709 58.1538 65.5065 56.5399 67.167 54.9044C67.9738 54.1215 68.7234 53.2838 69.4101 52.3976C69.7018 52.0273 69.9542 51.6289 70.1636 51.2085C70.2283 51.0709 70.2782 50.9271 70.3126 50.7793C70.3126 50.6849 70.3126 50.6677 70.3126 50.7793C70.3061 50.8105 70.3061 50.8426 70.3126 50.8737C70.3117 50.8866 70.3117 50.8995 70.3126 50.9124L70.2731 50.8179L70.1198 50.4402C70.0146 50.1826 69.9227 49.9294 69.8 49.6761L69.4495 48.9163L69.0771 48.1566C68.5558 47.1478 67.9994 46.1434 67.3948 45.1518C66.7902 44.1602 66.1637 43.173 65.5109 42.2028C65.1911 41.7135 64.8581 41.2284 64.5252 40.752L63.5263 39.3569L67.6795 36.2363Z" fill="#B55B52"/>
<path d="M67.2375 34.3899C70.4664 35.0295 73.3009 42.7646 73.3009 42.7646L66.5628 48.1432C66.5628 48.1432 64.3723 44.2112 62.5848 40.4166C60.6615 36.2829 63.3252 33.6173 67.2375 34.3899Z" fill="white"/>
<path d="M62.6331 59.3897L59.1545 59.7631L61.4108 63.4633C61.4108 63.4633 64.3023 62.5018 63.9518 60.9479L62.6331 59.3897Z" fill="#B55B52"/>
<path d="M57.0818 61.7167L59.0927 64.6914L61.4103 63.4638L59.154 59.7636L57.0818 61.7167Z" fill="#B55B52"/>
</svg>
